<svg width="449" height="175" viewBox="0 0 449 175" xmlns="http://www.w3.org/2000/svg" xmlns:xlink="http://www.w3.org/1999/xlink"><title>integrations-logo-jira</title><defs><path id="a" d="M0 .834h448.443V174.94H0V.834z"/></defs><g fill="none" fill-rule="evenodd"><path d="M223.858 42.859h-19.333a3.15 3.15 0 0 0-3.15 3.149v117.626a3.15 3.15 0 0 0 3.15 3.151h19.333a3.15 3.15 0 0 0 3.151-3.151V46.008a3.15 3.15 0 0 0-3.151-3.149" fill="#264970"/><mask id="b" fill="#fff"><use xlink:href="#a"/></mask><path d="M272.979 65.761h24.496c12.668 0 15.211 4.985 15.211 13.029v12.013c0 10.012-3.837 13.39-15.211 13.39h-24.496V65.761zm74.794 95.824l-26.917-38.828c11.59-4.808 17.464-14.884 17.464-29.952V76.97c0-23.592-12.317-34.111-39.936-34.111h-47.888a3.15 3.15 0 0 0-3.15 3.149v117.626a3.15 3.15 0 0 0 3.15 3.151h19.333a3.15 3.15 0 0 0 3.15-3.151v-36.89h19.785l26.908 38.689a3.153 3.153 0 0 0 2.586 1.352h23.123a3.15 3.15 0 0 0 2.392-5.2z" fill="#264970" mask="url(#b)"/><path d="M411.211 45.062a3.148 3.148 0 0 0-3.004-2.203h-29.395c-1.375 0-2.59.891-3.003 2.203l-37.086 117.625a3.148 3.148 0 0 0 3.004 4.098h20.236a3.149 3.149 0 0 0 3.021-2.258l25.539-86.509s.668-2.161 2.981-2.161c2.351 0 2.924 2.246 2.924 2.248l11.849 41.024h-16.279a3.15 3.15 0 0 0-3.032 2.296l-4.568 16.24a3.146 3.146 0 0 0 .522 2.754 3.147 3.147 0 0 0 2.511 1.248h27.471l7.137 22.904a3.15 3.15 0 0 0 3.008 2.214h20.246a3.15 3.15 0 0 0 3.004-4.098L411.211 45.062M178.582 42.859h-19.568a3.007 3.007 0 0 0-3.008 3v92.042c0 11.567-8.814 15.369-14.779 15.673-.804.039-1.74.546-2.254 1.297-.516.754-.66 1.7-.392 2.572l4.758 15.476c.388 1.267 1.753 2.081 3.974 2.081 18.723 0 34.269-14.7 34.269-34.404V45.86a2.998 2.998 0 0 0-3-3.001" fill="#264970" mask="url(#b)"/><path d="M27.051 10.77c-6.012 0-10.88 4.862-10.88 10.889 0 6.012 4.868 10.891 10.88 10.891 6.017 0 10.88-4.879 10.88-10.891a10.87 10.87 0 0 0-10.88-10.889M98.531 10.77c-6.015 0-10.877 4.862-10.877 10.889 0 6.012 4.862 10.891 10.877 10.891 5.998 0 10.878-4.879 10.878-10.891 0-6.027-4.88-10.881-10.878-10.889" fill="#264970"/><g fill="#264970"><path d="M62.791.834c-6.012 0-10.88 4.861-10.88 10.89 0 6.012 4.868 10.892 10.88 10.892 6.016 0 10.878-4.88 10.878-10.892 0-6.029-4.862-10.89-10.878-10.89M124.252 41.113a3.42 3.42 0 0 0-2.071-.699c-.41 0-.824.075-1.216.226-7.367 2.817-14.848 4.956-21.676 6.547-1.393.325-2.518 1.359-2.984 2.601-4.975 13.627-17.678 26.603-31.006 40.194-.535.508-1.284 1.178-2.504 1.178-1.217 0-1.959-.649-2.504-1.178-13.326-13.591-26.029-26.522-31.006-40.15-.467-1.241-1.592-2.275-2.982-2.601-6.832-1.591-14.332-3.796-21.69-6.613a3.43 3.43 0 0 0-1.219-.225c-.738 0-1.452.232-2.056.693a3.403 3.403 0 0 0-1.322 3.01c1.128 11.332 5.606 22.41 13.687 34.019 7.596 10.914 17.504 21.017 27.083 30.786 17.65 18.003 34.323 35.006 35.786 54.723a3.41 3.41 0 0 0 3.401 3.157h20.736a3.413 3.413 0 0 0 3.406-3.579c-.652-13.182-5.613-26.383-15.166-40.353a137.95 137.95 0 0 0-6.388-8.568c-.911-1.136-.53-2.547.167-3.259.689-.705 1.381-1.408 2.077-2.121 9.58-9.77 19.486-19.872 27.084-30.786 8.08-11.61 12.556-22.623 13.685-33.953a3.498 3.498 0 0 0-1.322-3.049"/></g><path d="M40.543 124.238c-.49-.513-1.211-1.037-2.421-1.037-1.548 0-2.466 1.07-2.813 1.6-8.722 13.273-13.227 25.8-13.85 38.389-.045.928.297 1.85.939 2.528a3.452 3.452 0 0 0 2.481 1.063H45.58a3.437 3.437 0 0 0 3.412-3.17c.451-6.067 2.34-12.149 5.779-18.54 1.192-2.211.266-4.288-.42-5.176-3.412-4.437-7.591-9.17-13.808-15.657M62.814 51.272c6.499 0 10.268-.39 11.592-.39 1.604 0 3.137 1.314 3.137 3.154 0 .537-.127.921-.253 1.26-.862 2.304-4.79 10.594-12.103 17.705-.82.798-1.75.947-2.39.947h-.008c-.639 0-1.568-.149-2.388-.947C53.088 65.89 49.159 57.6 48.299 55.296c-.127-.339-.254-.723-.254-1.26 0-1.84 1.535-3.154 3.139-3.154 1.324 0 5.091.39 11.587.39h.043" fill="#264970"/></g></svg>