<?xml version="1.0" encoding="utf-8"?>
<!-- Generator: Adobe Illustrator 19.1.0, SVG Export Plug-In . SVG Version: 6.00 Build 0)  -->
<svg version="1.1" id="Layer_1" xmlns="http://www.w3.org/2000/svg" xmlns:xlink="http://www.w3.org/1999/xlink" x="0px" y="0px"
	 viewBox="-593.5 857 110 15" style="enable-background:new -593.5 857 110 15;" xml:space="preserve">
<style type="text/css">
	.st0{enable-background:new    ;}
	.st1{fill:#4A4A61;}
</style>
<title>ROADMAP</title>
<desc>Created with Sketch.</desc>
<g class="st0">
	<path class="st1" d="M-590.4,866.3v4.7h-2.6v-12.1h3.5c1.6,0,2.9,0.3,3.7,0.9s1.2,1.5,1.2,2.7c0,0.7-0.2,1.3-0.6,1.9
		c-0.4,0.6-0.9,1-1.7,1.3c1.8,2.7,3,4.5,3.6,5.3h-2.9l-2.9-4.7H-590.4z M-590.4,864.3h0.8c0.8,0,1.4-0.1,1.8-0.4s0.6-0.7,0.6-1.3
		c0-0.6-0.2-1-0.6-1.2c-0.4-0.2-1-0.4-1.8-0.4h-0.8V864.3z"/>
	<path class="st1" d="M-566.8,864.9c0,2-0.5,3.6-1.5,4.6c-1,1.1-2.4,1.6-4.3,1.6s-3.3-0.5-4.3-1.6c-1-1.1-1.5-2.6-1.5-4.6
		c0-2,0.5-3.6,1.5-4.6c1-1.1,2.4-1.6,4.3-1.6s3.3,0.5,4.3,1.6C-567.3,861.4-566.8,862.9-566.8,864.9z M-575.6,864.9
		c0,1.4,0.3,2.4,0.8,3.1s1.3,1,2.3,1c2.1,0,3.1-1.4,3.1-4.1c0-2.7-1-4.1-3.1-4.1c-1,0-1.8,0.3-2.3,1
		C-575.4,862.5-575.6,863.6-575.6,864.9z"/>
	<path class="st1" d="M-552.8,871l-0.9-2.9h-4.4l-0.9,2.9h-2.8l4.3-12.2h3.1l4.3,12.2H-552.8z M-554.3,866c-0.8-2.6-1.3-4.1-1.4-4.4
		c-0.1-0.3-0.2-0.6-0.2-0.8c-0.2,0.7-0.7,2.5-1.6,5.3H-554.3z"/>
	<path class="st1" d="M-534.5,864.8c0,2-0.6,3.5-1.7,4.6c-1.1,1.1-2.8,1.6-4.9,1.6h-3.4v-12.1h3.8c2,0,3.5,0.5,4.6,1.6
		C-535,861.5-534.5,862.9-534.5,864.8z M-537.1,864.9c0-2.6-1.2-3.9-3.5-3.9h-1.4v7.9h1.1C-538.4,868.9-537.1,867.5-537.1,864.9z"/>
	<path class="st1" d="M-522.8,871l-2.9-9.5h-0.1c0.1,1.9,0.2,3.2,0.2,3.9v5.6h-2.3v-12.1h3.5l2.9,9.3h0l3-9.3h3.5V871h-2.4v-5.7
		c0-0.3,0-0.6,0-0.9c0-0.4,0-1.3,0.1-2.8h-0.1l-3.1,9.5H-522.8z"/>
	<path class="st1" d="M-500.5,871l-0.9-2.9h-4.4l-0.9,2.9h-2.8l4.3-12.2h3.1l4.3,12.2H-500.5z M-502,866c-0.8-2.6-1.3-4.1-1.4-4.4
		c-0.1-0.3-0.2-0.6-0.2-0.8c-0.2,0.7-0.7,2.5-1.6,5.3H-502z"/>
</g>
<g>
</g>
<g class="st0">
	<path class="st1" d="M-484.1,862.6c0,1.3-0.4,2.3-1.2,3c-0.8,0.7-2,1-3.5,1h-1.1v4.3h-2.6v-12.1h3.9c1.5,0,2.6,0.3,3.4,1
		S-484.1,861.4-484.1,862.6z M-489.9,864.6h0.8c0.8,0,1.4-0.2,1.8-0.5s0.6-0.8,0.6-1.4c0-0.6-0.2-1-0.5-1.3
		c-0.3-0.3-0.8-0.4-1.5-0.4h-1.2V864.6z"/>
</g>
</svg>
