<svg width="481" height="130" viewBox="0 0 481 130" xmlns="http://www.w3.org/2000/svg"><title>GitHub_Logo</title><g fill="#11100F" fill-rule="evenodd"><path d="M92.497 55.712H52.141a1.888 1.888 0 0 0-1.886 1.887V77.33c0 1.041.845 1.888 1.886 1.888h15.743v24.514s-3.535 1.205-13.308 1.205c-11.53 0-27.637-4.213-27.637-39.631 0-35.426 16.772-40.087 32.518-40.087 13.63 0 19.502 2.4 23.238 3.556 1.174.36 2.26-.809 2.26-1.851L89.457 7.86c0-.487-.165-1.074-.721-1.473C87.219 5.305 77.962.125 54.576.125 27.635.125 0 11.587 0 66.687 0 121.789 31.64 130 58.302 130c22.076 0 35.468-9.434 35.468-9.434.552-.305.612-1.076.612-1.43V57.599a1.887 1.887 0 0 0-1.885-1.887M300.475 6.727a1.88 1.88 0 0 0-1.873-1.897h-22.723a1.889 1.889 0 0 0-1.882 1.897l.006 43.913h-35.419V6.727c0-1.05-.836-1.897-1.875-1.897h-22.722a1.887 1.887 0 0 0-1.877 1.897V125.63c0 1.049.843 1.903 1.877 1.903h22.722c1.039 0 1.875-.854 1.875-1.903V74.771h35.419l-.062 50.859c0 1.049.843 1.903 1.882 1.903H298.6c1.041 0 1.873-.854 1.875-1.903V6.727M135.376 22.33c0-8.182-6.56-14.794-14.653-14.794-8.085 0-14.65 6.612-14.65 14.794 0 8.173 6.565 14.803 14.65 14.803 8.093 0 14.653-6.63 14.653-14.803M133.751 100.548V45.662a1.89 1.89 0 0 0-1.88-1.894H109.22c-1.039 0-1.969 1.072-1.969 2.114v78.635c0 2.311 1.44 2.998 3.304 2.998h20.408c2.239 0 2.788-1.099 2.788-3.035v-23.932M386.832 43.947h-22.549c-1.034 0-1.876.852-1.876 1.901v58.302s-5.728 4.191-13.859 4.191c-8.13 0-10.288-3.689-10.288-11.65V45.848c0-1.049-.84-1.901-1.875-1.901H313.5c-1.033 0-1.879.852-1.879 1.901v54.693c0 23.646 13.179 29.431 31.309 29.431 14.873 0 26.865-8.217 26.865-8.217s.571 4.33.829 4.844c.259.512.932 1.029 1.659 1.029l14.559-.064c1.033 0 1.879-.854 1.879-1.898l-.007-79.818a1.892 1.892 0 0 0-1.882-1.901M439.567 108.269c-7.821-.238-13.126-3.787-13.126-3.787V66.828s5.234-3.208 11.655-3.782c8.12-.727 15.944 1.726 15.944 21.096 0 20.426-3.531 24.457-14.473 24.127zm8.894-66.993c-12.807 0-21.518 5.714-21.518 5.714V6.727c0-1.05-.839-1.897-1.875-1.897h-22.787a1.887 1.887 0 0 0-1.878 1.897V125.63c0 1.049.842 1.903 1.881 1.903h15.81c.712 0 1.251-.367 1.649-1.01.393-.639.96-5.482.96-5.482s9.318 8.83 26.957 8.83c20.708 0 32.584-10.504 32.584-47.155s-18.967-41.44-31.783-41.44zM199.058 43.757h-17.045l-.026-22.518c0-.852-.439-1.278-1.424-1.278h-23.228c-.903 0-1.388.397-1.388 1.265v23.27s-11.64 2.81-12.427 3.037a1.887 1.887 0 0 0-1.361 1.812v14.623c0 1.052.84 1.9 1.879 1.9h11.909v35.178c0 26.129 18.328 28.696 30.696 28.696 5.651 0 12.411-1.815 13.527-2.227.675-.248 1.067-.947 1.067-1.705l.019-16.086c0-1.049-.886-1.898-1.884-1.898-.993 0-3.534.404-6.15.404-8.372 0-11.209-3.893-11.209-8.932l-.001-33.43h17.046c1.039 0 1.88-.848 1.88-1.9V45.652a1.886 1.886 0 0 0-1.88-1.895"/></g></svg>