<svg width="60" height="50" viewBox="0 0 60 50" xmlns="http://www.w3.org/2000/svg"><title>integrations-logos-basecamp</title><g fill="none" fill-rule="evenodd"><path d="M29.953 0C13.928 0 1.373 20.236.186 37.328c5.028 8.663 17.155 11.92 29.767 11.92 12.611 0 24.739-3.257 29.765-11.92C58.53 20.236 45.977 0 29.953 0" fill="#B6DEFF"/><path d="M55.53 33.257s-3.538-7.595-7.136-12.026c-3.6-4.433-7.996-9.26-10.596-9.26-2.597 0-9.86 12.763-13.192 12.763-3.332 0-5.064-5.785-9.16-5.785-4.1 0-10.611 13.951-10.611 13.951l-.441 2.366s2.262 9.955 25.929 9.955c23.667 0 25.559-9.792 25.559-9.792l-.351-2.172" fill="#6C6"/><path d="M24.977 30.181c-3.675 0-5.56-3.6-6.581-5.822-.919-2.001-1.078-5.162-3.685-5.25.257-.1.503-.16.734-.16 4.097 0 5.83 5.785 9.161 5.785 3.332 0 10.595-12.763 13.192-12.763.49 0 1.041.172 1.64.477-.443-.058-1.01-.018-1.447.417-.84.834-8.464 17.316-13.014 17.316" fill="#17AD49"/></g></svg>