<?xml version="1.0" encoding="UTF-8" standalone="no"?>
<svg width="26px" height="26px" viewBox="0 0 26 26" version="1.1" xmlns="http://www.w3.org/2000/svg" xmlns:xlink="http://www.w3.org/1999/xlink">
    <!-- Generator: Sketch 3.8.3 (29802) - http://www.bohemiancoding.com/sketch -->
    <title>Group 4</title>
    <desc>Created with Sketch.</desc>
    <defs></defs>
    <g id="pages" stroke="none" stroke-width="1" fill="none" fill-rule="evenodd">
        <g id="Group-4">
            <circle id="Oval-21" fill="#363636" cx="13" cy="13" r="13"></circle>
            <path d="M11.5732422,12.387207 L12.4033203,12.387207 C13.2168009,12.387207 13.8172181,12.251629 14.2045898,11.9804688 C14.5919616,11.7093085 14.7856445,11.283206 14.7856445,10.7021484 C14.7856445,10.1266247 14.5878112,9.71712361 14.1921387,9.47363281 C13.7964661,9.23014201 13.1835979,9.10839844 12.3535156,9.10839844 L11.5732422,9.10839844 L11.5732422,12.387207 Z M11.5732422,14.4790039 L11.5732422,19.1357422 L9,19.1357422 L9,7 L12.5361328,7 C14.1852296,7 15.4054322,7.30020859 16.1967773,7.90063477 C16.9881224,8.50106094 17.3837891,9.4127543 17.3837891,10.6357422 C17.3837891,11.3496129 17.1873392,11.9846164 16.7944336,12.5407715 C16.401528,13.0969266 15.8453812,13.5327133 15.1259766,13.8481445 C16.9521576,16.5763483 18.1419243,18.3388632 18.6953125,19.1357422 L15.8398438,19.1357422 L12.9428711,14.4790039 L11.5732422,14.4790039 Z" id="Shape" fill="#FFFFFF"></path>
        </g>
    </g>
</svg>